<svg width="64" height="64" xmlns="http://www.w3.org/2000/svg" xmlns:xlink="http://www.w3.org/1999/xlink"><defs><rect id="a" width="43" height="43" rx="21.5"/><rect id="c" width="43" height="43" rx="21.5"/><path d="M21 42.5C21 30.626 30.623 21 42.5 21 54.374 21 64 30.623 64 42.5 64 54.374 54.377 64 42.5 64 30.626 64 21 54.377 21 42.5zm1 0C22 53.824 31.178 63 42.5 63 53.824 63 63 53.822 63 42.5 63 31.176 53.822 22 42.5 22 31.176 22 22 31.178 22 42.5z" id="e"/></defs><g fill="none" fill-rule="evenodd"><mask id="b" fill="#fff"><use xlink:href="#a"/></mask><use fill="#D11242" xlink:href="#a"/><g mask="url(#b)"><path fill="#D52B1E" d="M-7.341 0h57.683v43H-7.341z"/><g fill="#FFF"><path d="M10 18h23v7H10z"/><path d="M25 10v23h-7V10z"/></g></g><g transform="translate(21 21)"><mask id="d" fill="#fff"><use xlink:href="#c"/></mask><use fill="#FFF" xlink:href="#c"/><path d="M21.501 32C27.295 32 32 27.298 32 21.5 32 15.701 27.295 11 21.501 11 15.702 11 11 15.701 11 21.5 11 27.298 15.702 32 21.501 32" fill="#BC002D" mask="url(#d)"/></g><use fill="#000" opacity=".15" xlink:href="#e"/></g></svg>