<svg width="64" height="64" xmlns="http://www.w3.org/2000/svg" xmlns:xlink="http://www.w3.org/1999/xlink"><defs><rect id="a" width="43" height="43" rx="21.5"/><rect id="c" width="43" height="43" rx="21.5"/><path id="e" d="M0 .096h26v20H0z"/><path d="M21 42.5C21 30.626 30.623 21 42.5 21 54.374 21 64 30.623 64 42.5 64 54.374 54.377 64 42.5 64 30.626 64 21 54.377 21 42.5zm1 0C22 53.824 31.178 63 42.5 63 53.824 63 63 53.822 63 42.5 63 31.176 53.822 22 42.5 22 31.176 22 22 31.178 22 42.5z" id="g"/></defs><g fill="none" fill-rule="evenodd"><mask id="b" fill="#fff"><use xlink:href="#a"/></mask><use fill="#2355E9" xlink:href="#a"/><g mask="url(#b)"><g transform="translate(8 8)" fill="#FBCB03"><g transform="translate(1.174)"><circle cx="12.326" cy="1.761" r="1.761"/><circle cx="6.457" cy="2.935" r="1.761"/><circle cx="18.196" cy="2.935" r="1.761"/><circle cx="22.891" cy="7.63" r="1.761"/><circle cx="1.761" cy="7.63" r="1.761"/></g><g transform="matrix(1 0 0 -1 1.174 27)"><circle cx="12.326" cy="1.761" r="1.761"/><circle cx="6.457" cy="2.935" r="1.761"/><circle cx="18.196" cy="2.935" r="1.761"/><circle cx="22.891" cy="7.63" r="1.761"/><circle cx="1.761" cy="7.63" r="1.761"/></g><circle cx="25.239" cy="13.5" r="1.761"/><circle cx="1.761" cy="13.5" r="1.761"/></g></g><g><g transform="translate(21 21)"><mask id="d" fill="#fff"><use xlink:href="#c"/></mask><use fill="#1836CE" xlink:href="#c"/><g mask="url(#d)"><g fill="#FFF"><path d="M11.8 25.13l-1 3.116-3.05-1.16 1.805 2.727-2.805 1.671 3.25.284-.448 3.243 2.248-2.373 2.247 2.373-.447-3.243 3.25-.284-2.806-1.67 1.805-2.727-3.05 1.159zM28.21 30.745l-.426 1.33-1.301-.495.77 1.164-1.197.713 1.386.12-.19 1.384.958-1.012.96 1.012-.192-1.383 1.387-.121-1.197-.713.77-1.164-1.302.495zM30.833 10.875l-.53 1.654-1.619-.615.958 1.447-1.489.887 1.725.15-.237 1.72 1.192-1.258 1.193 1.259-.238-1.72 1.725-.151-1.489-.887.958-1.447-1.619.615zM22.418 22.41l-.53 1.654-1.62-.615.959 1.447-1.489.887 1.725.15-.238 1.721 1.193-1.26 1.192 1.26-.237-1.72 1.724-.151-1.488-.887.958-1.447-1.62.615zM34.93 17.895l-.53 1.654-1.62-.615.959 1.447-1.489.886 1.725.15-.238 1.722 1.193-1.26 1.192 1.26-.237-1.721 1.724-.15-1.488-.887.957-1.447-1.618.615zM32.223 25.17l-.487 1.198-1.288.095.986.836-.308 1.258 1.097-.683 1.098.683-.308-1.258.986-.836-1.288-.095z"/></g><g><mask id="f" fill="#fff"><use xlink:href="#e"/></mask><use fill="#1836CE" xlink:href="#e"/><path fill="#FFF" mask="url(#f)" d="M0 20.905h2.931L26.22 2.422V.096h-2.932L0 18.578z"/><path fill="#FFF" mask="url(#f)" d="M26.22 20.905h-2.932L0 2.422V.096h2.931L26.22 18.578z"/><path fill="#FFF" mask="url(#f)" d="M0 7h26v7H0z"/><path fill="#CE1126" mask="url(#f)" d="M0 20.905h1.954l8.74-6.937H8.74zM15.525 7.032h1.955L26.22.096h-1.955z"/><path fill="#FFF" mask="url(#f)" d="M10 0h7v20.976h-7z"/><path fill="#CE1126" mask="url(#f)" d="M11 0h5v21h-5z"/><path fill="#CE1126" mask="url(#f)" d="M0 8h26.22v5H0zM26.22 20.905v-1.551l-6.786-5.386H17.48zM0 .096v1.55l6.786 5.386H8.74z"/></g></g></g></g><use fill="#000" opacity=".15" xlink:href="#g"/></g></svg>