<svg width="64" height="64" xmlns="http://www.w3.org/2000/svg" xmlns:xlink="http://www.w3.org/1999/xlink"><defs><rect id="a" width="43" height="43" rx="21.5"/><rect id="c" width="43" height="43" rx="21.5"/><path id="e" d="M0 .096h26v20H0z"/><path d="M21 42.5C21 30.626 30.623 21 42.5 21 54.374 21 64 30.623 64 42.5 64 54.374 54.377 64 42.5 64 30.626 64 21 54.377 21 42.5zm1 0C22 53.824 31.178 63 42.5 63 53.824 63 63 53.822 63 42.5 63 31.176 53.822 22 42.5 22 31.176 22 22 31.178 22 42.5z" id="g"/></defs><g fill="none" fill-rule="evenodd"><mask id="b" fill="#fff"><use xlink:href="#a"/></mask><use fill="#2355E9" xlink:href="#a"/><g mask="url(#b)"><g transform="translate(8 8)" fill="#FBCB03"><g transform="translate(1.174)"><circle cx="12.326" cy="1.761" r="1.761"/><circle cx="6.457" cy="2.935" r="1.761"/><circle cx="18.196" cy="2.935" r="1.761"/><circle cx="22.891" cy="7.63" r="1.761"/><circle cx="1.761" cy="7.63" r="1.761"/></g><g transform="matrix(1 0 0 -1 1.174 27)"><circle cx="12.326" cy="1.761" r="1.761"/><circle cx="6.457" cy="2.935" r="1.761"/><circle cx="18.196" cy="2.935" r="1.761"/><circle cx="22.891" cy="7.63" r="1.761"/><circle cx="1.761" cy="7.63" r="1.761"/></g><circle cx="25.239" cy="13.5" r="1.761"/><circle cx="1.761" cy="13.5" r="1.761"/></g></g><g><g transform="translate(21 21)"><mask id="d" fill="#fff"><use xlink:href="#c"/></mask><use fill="#1836CE" xlink:href="#c"/><g mask="url(#d)"><path fill="#FFF" d="M32.246 15.717v1.869l3.85-1.87z"/><path fill="#FFF" d="M32.981 17.914l-1.131-1.512 4.246-.685z"/><path fill="#FFF" d="M32.246 15.717v1.869l-3.85-1.87z"/><path fill="#FFF" d="M31.51 17.914l1.132-1.512-4.246-.685z"/><path fill="#FFF" d="M33.436 16.556l-1.831.578 3.02 2.978z"/><path fill="#FFF" d="M31.51 17.914l1.132-1.512 1.984 3.71z"/><path fill="#FFF" d="M32.246 13l-1.19 3.556 1.831.578z"/><path fill="#FFF" d="M32.246 13l-.641 4.134 1.83-.578z"/><path fill="#FFF" d="M31.056 16.556l1.831.578-3.02 2.978z"/><path fill="#FFF" d="M32.981 17.914l-1.131-1.512-1.984 3.71z"/><path fill="#CC142B" d="M32.246 16.129v1.235l2.544-1.235z"/><path fill="#CC142B" d="M32.732 17.58l-.748-.999 2.806-.452z"/><path fill="#CC142B" d="M32.246 16.129v1.235l-2.544-1.235z"/><path fill="#CC142B" d="M31.76 17.58l.748-.999-2.806-.452z"/><path fill="#CC142B" d="M33.032 16.683l-1.21.382 1.997 1.968z"/><path fill="#CC142B" d="M31.76 17.58l.748-.999 1.31 2.452z"/><path fill="#CC142B" d="M31.46 16.683l1.21.382-.424-2.731z"/><path fill="#CC142B" d="M33.032 16.683l-1.21.382.424-2.731z"/><path fill="#CC142B" d="M31.46 16.683l1.21.382-1.997 1.968z"/><path fill="#CC142B" d="M32.732 17.58l-.748-.999-1.31 2.452z"/><path fill="#FFF" d="M35.2 26.021v1.456l3.045-1.456z"/><path fill="#FFF" d="M34.886 26.555l.895 1.178 2.464-1.712z"/><path fill="#FFF" d="M35.2 26.021v1.456l-3.046-1.456z"/><path fill="#FFF" d="M34.618 27.733l.895-1.178-3.36-.534z"/><path fill="#FFF" d="M36.14 26.675l-1.448.45 2.39 2.319z"/><path fill="#FFF" d="M34.618 27.733l.895-1.178 1.569 2.889z"/><path fill="#FFF" d="M34.258 26.675l1.449.45-.508-3.219z"/><path fill="#FFF" d="M36.14 26.675l-1.448.45.507-3.219z"/><path fill="#FFF" d="M34.258 26.675l1.449.45-2.39 2.319z"/><path fill="#FFF" d="M35.781 27.733l-.895-1.178-1.569 2.889z"/><path fill="#CC142B" d="M35.2 26.382v.9l1.884-.9z"/><path fill="#CC142B" d="M35.56 27.44l-.555-.728 2.08-.33z"/><path fill="#CC142B" d="M35.2 26.382v.9l-1.885-.9z"/><path fill="#CC142B" d="M34.84 27.44l.553-.728-2.078-.33z"/><path fill="#CC142B" d="M35.782 26.786l-.896.279 1.478 1.435z"/><path fill="#CC142B" d="M34.84 27.44l.553-.728.971 1.788z"/><path fill="#CC142B" d="M34.617 26.786l.896.279-.314-1.992z"/><path fill="#CC142B" d="M35.782 26.786l-.896.279.313-1.992z"/><path fill="#CC142B" d="M34.617 26.786l.896.279-1.478 1.435z"/><path fill="#CC142B" d="M35.56 27.44l-.555-.728-.97 1.788z"/><path fill="#FFF" d="M21.912 26.061v1.87l3.911-1.87z"/><path fill="#FFF" d="M22.659 28.259l-1.15-1.513 4.314-.685z"/><path fill="#FFF" d="M18 26.061l3.912 1.87v-1.87z"/><path fill="#FFF" d="M21.164 28.259l1.15-1.513L18 26.061z"/><path fill="#FFF" d="M23.12 26.9l-1.86.578 3.069 2.979z"/><path fill="#FFF" d="M21.165 28.259l1.15-1.513 2.014 3.71z"/><path fill="#FFF" d="M20.703 26.9l1.86.578-.651-4.133z"/><path fill="#FFF" d="M23.12 26.9l-1.86.578.652-4.133z"/><path fill="#FFF" d="M20.703 26.9l1.86.578-3.069 2.979z"/><path fill="#FFF" d="M22.659 28.259l-1.15-1.513-2.015 3.71z"/><path fill="#CC142B" d="M21.912 26.473v1.236l2.584-1.236z"/><path fill="#CC142B" d="M22.405 27.925l-.76-.999 2.851-.453z"/><path fill="#CC142B" d="M21.912 26.473v1.236l-2.585-1.236z"/><path fill="#CC142B" d="M21.418 27.925l.76-.999-2.851-.453z"/><path fill="#CC142B" d="M22.71 27.028l-1.229.382 2.028 1.968z"/><path fill="#CC142B" d="M21.418 27.925l.76-.999 1.331 2.452z"/><path fill="#CC142B" d="M21.113 27.028l1.229.382-.43-2.732z"/><path fill="#CC142B" d="M22.71 27.028l-1.229.382.43-2.732z"/><path fill="#CC142B" d="M21.113 27.028l1.229.382-2.028 1.968z"/><path fill="#CC142B" d="M22.405 27.925l-.76-.999-1.33 2.452z"/><path fill="#FFF" d="M31.774 34.702v1.816l3.8-1.816z"/><path fill="#FFF" d="M32.5 36.837l-1.117-1.47 4.19-.665z"/><path fill="#FFF" d="M31.774 34.702v1.816l-3.8-1.816z"/><path fill="#FFF" d="M31.049 36.837l1.116-1.47-4.19-.665z"/><path fill="#FFF" d="M31.142 36.079l2.98 2.893-1.174-3.454z"/><path fill="#FFF" d="M31.049 36.837l3.074 2.135-1.958-3.604z"/><path fill="#FFF" d="M30.6 35.518l1.807.56-.633-4.015z"/><path fill="#FFF" d="M32.948 35.518l-1.806.56.632-4.015z"/><path fill="#FFF" d="M29.426 38.972l2.98-2.893-1.806-.561z"/><path fill="#FFF" d="M29.426 38.972l3.074-2.135-1.117-1.47z"/><path fill="#CC142B" d="M31.774 35.063v1.26l2.639-1.26z"/><path fill="#CC142B" d="M32.278 36.545l-.775-1.02 2.91-.462z"/><path fill="#CC142B" d="M31.774 35.063v1.26l-2.638-1.26z"/><path fill="#CC142B" d="M31.27 36.545l.776-1.02-2.91-.462z"/><path fill="#CC142B" d="M32.59 35.63l-1.255.389 2.07 2.009z"/><path fill="#CC142B" d="M31.27 36.545l.776-1.02 1.359 2.503z"/><path fill="#CC142B" d="M30.959 35.63l1.255.389-.44-2.789z"/><path fill="#CC142B" d="M32.59 35.63l-1.255.389.44-2.789z"/><path fill="#CC142B" d="M30.959 35.63l1.255.389-2.07 2.009z"/><path fill="#CC142B" d="M32.278 36.545l-.775-1.02-1.36 2.503z"/></g><g mask="url(#d)"><g><mask id="f" fill="#fff"><use xlink:href="#e"/></mask><use fill="#1836CE" xlink:href="#e"/><path fill="#FFF" mask="url(#f)" d="M0 20.905h2.931L26.22 2.422V.096h-2.932L0 18.578z"/><path fill="#FFF" mask="url(#f)" d="M26.22 20.905h-2.932L0 2.422V.096h2.931L26.22 18.578z"/><path fill="#FFF" mask="url(#f)" d="M0 7h26v7H0z"/><path fill="#CE1126" mask="url(#f)" d="M0 20.905h1.954l8.74-6.937H8.74zM15.525 7.032h1.955L26.22.096h-1.955z"/><path fill="#FFF" mask="url(#f)" d="M10 0h7v20.976h-7z"/><path fill="#CE1126" mask="url(#f)" d="M11 0h5v21h-5z"/><path fill="#CE1126" mask="url(#f)" d="M0 8h26.22v5H0zM26.22 20.905v-1.551l-6.786-5.386H17.48zM0 .096v1.55l6.786 5.386H8.74z"/></g></g></g></g><use fill="#000" opacity=".15" xlink:href="#g"/></g></svg>