<svg width="64" height="64" xmlns="http://www.w3.org/2000/svg" xmlns:xlink="http://www.w3.org/1999/xlink"><defs><rect id="a" width="43" height="43" rx="21.5"/><rect id="c" width="43" height="43" rx="21.5"/><path d="M21 42.5C21 30.626 30.623 21 42.5 21 54.374 21 64 30.623 64 42.5 64 54.374 54.377 64 42.5 64 30.626 64 21 54.377 21 42.5zm1 0C22 53.824 31.178 63 42.5 63 53.824 63 63 53.822 63 42.5 63 31.176 53.822 22 42.5 22 31.176 22 22 31.178 22 42.5z" id="e"/></defs><g fill="none" fill-rule="evenodd"><mask id="b" fill="#fff"><use xlink:href="#a"/></mask><use fill="#1836CE" xlink:href="#a"/><g mask="url(#b)"><path fill="#1836CE" d="M0 .196h43v42.659H0z"/><path fill="#FFF" d="M0 42.855h4.807L43 4.965V.196h-4.807L0 38.086z"/><path fill="#FFF" d="M43 42.855h-4.807L0 4.965V.196h4.807L43 38.086z"/><path fill="#CE1126" d="M4.195 3.342v3.18l11.129 11.04h3.204zM23.364 17.562h3.205l14.333-14.22h-3.204zM1.049 40.757h3.205l14.333-14.22h-3.205z"/><path fill="#FFF" d="M0 17h43v10H0z"/><path fill="#FFF" d="M17 0h9v43h-9z"/><path fill="#CE1126" d="M18 0h7v43h-7z"/><path fill="#CE1126" d="M-1.049 18H44.05v8H-1.049zM43 42.855v-3.18l-11.128-11.04h-3.205z"/></g><g transform="translate(21 21)"><mask id="d" fill="#fff"><use xlink:href="#c"/></mask><use fill="#FFF" xlink:href="#c"/><path d="M21.501 32C27.295 32 32 27.298 32 21.5 32 15.701 27.295 11 21.501 11 15.702 11 11 15.701 11 21.5 11 27.298 15.702 32 21.501 32" fill="#BC002D" mask="url(#d)"/></g><use fill="#000" opacity=".15" xlink:href="#e"/></g></svg>