<svg width="64" height="64" xmlns="http://www.w3.org/2000/svg" xmlns:xlink="http://www.w3.org/1999/xlink"><defs><rect id="a" width="43" height="43" rx="21.5"/><path id="c" d="M0 0h24v26H0z"/><rect id="e" width="43" height="43" rx="21.5"/></defs><g fill="none" fill-rule="evenodd"><mask id="b" fill="#fff"><use xlink:href="#a"/></mask><use fill="#D11242" xlink:href="#a"/><path fill="#FFF" mask="url(#b)" d="M-2 33h45v4H-2zM-2 6h45v4H-2zM-2 15h45v4H-2zM-2 24h45v4H-2z"/><g mask="url(#b)"><g transform="translate(0 -2)"><mask id="d" fill="#fff"><use xlink:href="#c"/></mask><use fill="#2381E8" xlink:href="#c"/><g opacity=".7" mask="url(#d)" fill="#FFF"><path d="M20 22h2v2h-2zM16 22h2v2h-2zM12 22h2v2h-2zM8 22h2v2H8zM4 22h2v2H4zM18 20h2v2h-2zM14 20h2v2h-2zM10 20h2v2h-2zM6 20h2v2H6zM2 20h2v2H2zM24 18h2v2h-2zM20 18h2v2h-2zM16 18h2v2h-2zM12 18h2v2h-2zM8 18h2v2H8zM4 18h2v2H4zM18 16h2v2h-2zM14 16h2v2h-2zM10 16h2v2h-2zM6 16h2v2H6zM2 16h2v2H2zM24 14h2v2h-2zM20 14h2v2h-2zM16 14h2v2h-2zM12 14h2v2h-2zM8 14h2v2H8zM4 14h2v2H4zM18 12h2v2h-2zM14 12h2v2h-2zM10 12h2v2h-2zM6 12h2v2H6zM2 12h2v2H2zM20 10h2v2h-2zM16 10h2v2h-2zM12 10h2v2h-2zM8 10h2v2H8zM4 10h2v2H4zM0 10h2v2H0zM18 8h2v2h-2zM14 8h2v2h-2zM10 8h2v2h-2zM6 8h2v2H6zM2 8h2v2H2zM20 6h2v2h-2zM16 6h2v2h-2zM12 6h2v2h-2zM8 6h2v2H8zM4 6h2v2H4zM0 6h2v2H0zM18 4h2v2h-2zM14 4h2v2h-2zM10 4h2v2h-2zM6 4h2v2H6zM2 4h2v2H2zM12 2h2v2h-2zM8 2h2v2H8zM4 2h2v2H4zM0 2h2v2H0z"/></g></g></g><g transform="translate(21 21)"><mask id="f" fill="#fff"><use xlink:href="#e"/></mask><use fill="#D11242" xlink:href="#e"/><g mask="url(#f)"><path fill="#D52B1E" d="M-7.341 0h57.683v43H-7.341z"/><g fill="#FFF"><path d="M10 18h23v7H10z"/><path d="M25 10v23h-7V10z"/></g></g></g></g></svg>