<svg width="64" height="64" xmlns="http://www.w3.org/2000/svg" xmlns:xlink="http://www.w3.org/1999/xlink"><defs><rect id="a" width="43" height="43" rx="21.5"/><rect id="c" width="43" height="43" rx="21.5"/><path d="M21 42.5C21 30.626 30.623 21 42.5 21 54.374 21 64 30.623 64 42.5 64 54.374 54.377 64 42.5 64 30.626 64 21 54.377 21 42.5zm1 0C22 53.824 31.178 63 42.5 63 53.824 63 63 53.822 63 42.5 63 31.176 53.822 22 42.5 22 31.176 22 22 31.178 22 42.5z" id="e"/></defs><g fill="none" fill-rule="evenodd"><mask id="b" fill="#fff"><use xlink:href="#a"/></mask><use fill="#D11242" xlink:href="#a"/><g mask="url(#b)"><path fill="#D52B1E" d="M-7.341 0h57.683v43H-7.341z"/><path fill="#FFF" d="M10 0h23v43H10z"/><path d="M21.5 11l-1.66 3.165c-.188.344-.525.312-.863.12l-1.2-.637.894 4.861c.189.888-.415.888-.713.504l-2.097-2.4-.34 1.22a.406.406 0 0 1-.471.287l-2.65-.57.695 2.589c.15.576.266.814-.15.966L12 21.56l4.563 3.79c.181.144.272.402.208.636l-.4 1.34c1.572-.185 2.98-.464 4.552-.636.139-.015.371.22.37.384l-.208 4.91h.764l-.12-4.9c-.001-.164.21-.409.348-.394 1.572.172 2.98.45 4.551.636l-.399-1.34a.619.619 0 0 1 .208-.635L31 21.56l-.945-.455c-.416-.152-.3-.39-.15-.966l.696-2.589-2.651.57a.406.406 0 0 1-.47-.288l-.341-1.219-2.097 2.4c-.298.384-.902.384-.713-.504l.895-4.86-1.201.636c-.338.192-.675.224-.863-.12" fill="#D52B1E"/></g><g transform="translate(21 21)"><mask id="d" fill="#fff"><use xlink:href="#c"/></mask><use fill="#D11242" xlink:href="#c"/><g mask="url(#d)"><path fill="#D52B1E" d="M-7.341 0h57.683v43H-7.341z"/><g fill="#FFF"><path d="M10 18h23v7H10z"/><path d="M25 10v23h-7V10z"/></g></g></g><use fill="#000" opacity=".15" xlink:href="#e"/></g></svg>