<svg width="64" height="64" xmlns="http://www.w3.org/2000/svg" xmlns:xlink="http://www.w3.org/1999/xlink"><defs><rect id="a" width="43" height="43" rx="21.5"/><path d="M0 21.5C0 9.626 9.623 0 21.5 0 33.374 0 43 9.623 43 21.5 43 33.374 33.377 43 21.5 43 9.626 43 0 33.377 0 21.5zm1 0C1 32.824 10.178 42 21.5 42 32.824 42 42 32.822 42 21.5 42 10.176 32.822 1 21.5 1 10.176 1 1 10.178 1 21.5z" id="c"/><rect id="d" width="43" height="43" rx="21.5"/><path d="M21 42.5C21 30.626 30.623 21 42.5 21 54.374 21 64 30.623 64 42.5 64 54.374 54.377 64 42.5 64 30.626 64 21 54.377 21 42.5zm1 0C22 53.824 31.178 63 42.5 63 53.824 63 63 53.822 63 42.5 63 31.176 53.822 22 42.5 22 31.176 22 22 31.178 22 42.5z" id="f"/></defs><g fill="none" fill-rule="evenodd"><mask id="b" fill="#fff"><use xlink:href="#a"/></mask><use fill="#D11242" xlink:href="#a"/><g mask="url(#b)"><path fill="#D52B1E" d="M-7.341 0h57.683v43H-7.341z"/><path fill="#FFF" d="M10 0h23v43H10z"/><path d="M21.5 11l-1.66 3.165c-.188.344-.525.312-.863.12l-1.2-.637.894 4.861c.189.888-.415.888-.713.504l-2.097-2.4-.34 1.22a.406.406 0 0 1-.471.287l-2.65-.57.695 2.589c.15.576.266.814-.15.966L12 21.56l4.563 3.79c.181.144.272.402.208.636l-.4 1.34c1.572-.185 2.98-.464 4.552-.636.139-.015.371.22.37.384l-.208 4.91h.764l-.12-4.9c-.001-.164.21-.409.348-.394 1.572.172 2.98.45 4.551.636l-.399-1.34a.619.619 0 0 1 .208-.635L31 21.56l-.945-.455c-.416-.152-.3-.39-.15-.966l.696-2.589-2.651.57a.406.406 0 0 1-.47-.288l-.341-1.219-2.097 2.4c-.298.384-.902.384-.713-.504l.895-4.86-1.201.636c-.338.192-.675.224-.863-.12" fill="#D52B1E"/></g><use fill="#000" opacity=".1" xlink:href="#c"/><g transform="translate(21 21)"><mask id="e" fill="#fff"><use xlink:href="#d"/></mask><use fill="#FFF" xlink:href="#d"/><path d="M21.501 32C27.295 32 32 27.298 32 21.5 32 15.701 27.295 11 21.501 11 15.702 11 11 15.701 11 21.5 11 27.298 15.702 32 21.501 32" fill="#BC002D" mask="url(#e)"/></g><use fill="#000" opacity=".1" xlink:href="#f"/></g></svg>