<?xml version="1.0" standalone="no"?>
<!DOCTYPE svg PUBLIC "-//W3C//DTD SVG 20010904//EN"
 "http://www.w3.org/TR/2001/REC-SVG-20010904/DTD/svg10.dtd">
<svg version="1.0" xmlns="http://www.w3.org/2000/svg"
 width="56.000000pt" height="56.000000pt" viewBox="0 0 56.000000 56.000000"
 preserveAspectRatio="xMidYMid meet">

<g transform="translate(0.000000,56.000000) scale(0.100000,-0.100000)"
fill="#000000" stroke="none">
<path d="M280 399 l0 -66 -62 -27 -63 -28 60 -34 c33 -18 63 -34 67 -34 4 0
32 15 62 33 l55 33 -29 45 c-15 24 -42 67 -59 94 l-31 50 0 -66z"/>
<path d="M333 217 c-51 -30 -53 -32 -53 -76 0 -24 2 -42 4 -40 7 7 91 123 100
137 9 15 11 16 -51 -21z"/>
</g>
</svg>
