<?xml version="1.0" standalone="no"?>
<!DOCTYPE svg PUBLIC "-//W3C//DTD SVG 20010904//EN"
 "http://www.w3.org/TR/2001/REC-SVG-20010904/DTD/svg10.dtd">
<svg version="1.0" xmlns="http://www.w3.org/2000/svg"
 width="56.000000pt" height="56.000000pt" viewBox="0 0 56.000000 56.000000"
 preserveAspectRatio="xMidYMid meet">

<g transform="translate(0.000000,56.000000) scale(0.100000,-0.100000)"
fill="#000000" stroke="none">
<path d="M346 492 l-40 -27 42 -3 c101 -8 110 -125 12 -152 -56 -15 -55 -43 2
-62 54 -17 76 -54 58 -99 -23 -54 -90 -67 -130 -24 -20 21 -22 31 -16 73 7 57
-11 75 -43 43 -46 -46 -85 -52 -125 -20 -19 15 -26 30 -26 56 0 19 -3 33 -7
31 -67 -32 -65 -30 -61 -73 21 -179 223 -283 391 -202 98 48 151 135 151 247
0 48 -6 78 -22 112 -26 52 -103 128 -129 127 -10 0 -36 -12 -57 -27z"/>
<path d="M220 409 c-54 -35 -69 -49 -52 -49 12 0 36 -13 53 -29 37 -36 64 -32
54 8 -12 45 -8 81 10 101 25 27 21 25 -65 -31z"/>
</g>
</svg>
